<mxfile host="app.diagrams.net" agent="Mozilla/5.0 (Windows NT 10.0; Win64; x64) AppleWebKit/537.36 (KHTML, like Gecko) Chrome/138.0.0.0 Safari/537.36 Edg/138.0.0.0" version="28.0.4">
  <diagram name="Page-1" id="7EOnSexLtBB46fiKPTmx">
    <mxGraphModel dx="1164" dy="551" grid="1" gridSize="10" guides="1" tooltips="1" connect="1" arrows="1" fold="1" page="1" pageScale="1" pageWidth="850" pageHeight="1100" math="0" shadow="0">
      <root>
        <mxCell id="0" />
        <mxCell id="1" parent="0" />
        <mxCell id="cgtv0CHKIQMcRAsqrqvQ-5" style="edgeStyle=orthogonalEdgeStyle;rounded=0;orthogonalLoop=1;jettySize=auto;html=1;entryX=0.5;entryY=0;entryDx=0;entryDy=0;" edge="1" parent="1" source="cgtv0CHKIQMcRAsqrqvQ-14" target="cgtv0CHKIQMcRAsqrqvQ-3">
          <mxGeometry relative="1" as="geometry" />
        </mxCell>
        <mxCell id="cgtv0CHKIQMcRAsqrqvQ-6" value="Express Connect" style="edgeLabel;html=1;align=center;verticalAlign=middle;resizable=0;points=[];" vertex="1" connectable="0" parent="cgtv0CHKIQMcRAsqrqvQ-5">
          <mxGeometry x="0.0762" y="-3" relative="1" as="geometry">
            <mxPoint as="offset" />
          </mxGeometry>
        </mxCell>
        <mxCell id="cgtv0CHKIQMcRAsqrqvQ-1" value="IDC" style="swimlane;whiteSpace=wrap;html=1;" vertex="1" parent="1">
          <mxGeometry x="340" y="40" width="200" height="120" as="geometry" />
        </mxCell>
        <mxCell id="cgtv0CHKIQMcRAsqrqvQ-2" value="AWS" style="swimlane;whiteSpace=wrap;html=1;startSize=23;" vertex="1" parent="1">
          <mxGeometry x="119" y="260" width="200" height="120" as="geometry" />
        </mxCell>
        <mxCell id="cgtv0CHKIQMcRAsqrqvQ-3" value="AliCloud" style="swimlane;whiteSpace=wrap;html=1;" vertex="1" parent="1">
          <mxGeometry x="550" y="250" width="200" height="120" as="geometry" />
        </mxCell>
        <mxCell id="cgtv0CHKIQMcRAsqrqvQ-9" value="" style="points=[];aspect=fixed;html=1;align=center;shadow=0;dashed=0;fillColor=#FF6A00;strokeColor=none;shape=mxgraph.alibaba_cloud.cen_cloud_enterprise_network;" vertex="1" parent="cgtv0CHKIQMcRAsqrqvQ-3">
          <mxGeometry x="-30" y="32.55000000000001" width="53.4" height="54.900000000000006" as="geometry" />
        </mxCell>
        <mxCell id="cgtv0CHKIQMcRAsqrqvQ-7" style="edgeStyle=orthogonalEdgeStyle;rounded=0;orthogonalLoop=1;jettySize=auto;html=1;entryX=0.468;entryY=-0.001;entryDx=0;entryDy=0;entryPerimeter=0;" edge="1" parent="1" source="cgtv0CHKIQMcRAsqrqvQ-11" target="cgtv0CHKIQMcRAsqrqvQ-2">
          <mxGeometry relative="1" as="geometry" />
        </mxCell>
        <mxCell id="cgtv0CHKIQMcRAsqrqvQ-8" value="Direct Connect" style="edgeLabel;html=1;align=center;verticalAlign=middle;resizable=0;points=[];" vertex="1" connectable="0" parent="cgtv0CHKIQMcRAsqrqvQ-7">
          <mxGeometry x="0.0763" y="1" relative="1" as="geometry">
            <mxPoint as="offset" />
          </mxGeometry>
        </mxCell>
        <mxCell id="cgtv0CHKIQMcRAsqrqvQ-10" value="" style="sketch=0;points=[[0,0,0],[0.25,0,0],[0.5,0,0],[0.75,0,0],[1,0,0],[0,1,0],[0.25,1,0],[0.5,1,0],[0.75,1,0],[1,1,0],[0,0.25,0],[0,0.5,0],[0,0.75,0],[1,0.25,0],[1,0.5,0],[1,0.75,0]];outlineConnect=0;fontColor=#232F3E;fillColor=#8C4FFF;strokeColor=#ffffff;dashed=0;verticalLabelPosition=bottom;verticalAlign=top;align=center;html=1;fontSize=12;fontStyle=0;aspect=fixed;shape=mxgraph.aws4.resourceIcon;resIcon=mxgraph.aws4.transit_gateway;" vertex="1" parent="1">
          <mxGeometry x="290" y="280" width="78" height="78" as="geometry" />
        </mxCell>
        <mxCell id="cgtv0CHKIQMcRAsqrqvQ-12" value="" style="edgeStyle=orthogonalEdgeStyle;rounded=0;orthogonalLoop=1;jettySize=auto;html=1;entryX=0.468;entryY=-0.001;entryDx=0;entryDy=0;entryPerimeter=0;" edge="1" parent="1" source="cgtv0CHKIQMcRAsqrqvQ-1" target="cgtv0CHKIQMcRAsqrqvQ-11">
          <mxGeometry relative="1" as="geometry">
            <mxPoint x="340" y="100" as="sourcePoint" />
            <mxPoint x="224" y="250" as="targetPoint" />
          </mxGeometry>
        </mxCell>
        <mxCell id="cgtv0CHKIQMcRAsqrqvQ-11" value="" style="sketch=0;points=[[0,0,0],[0.25,0,0],[0.5,0,0],[0.75,0,0],[1,0,0],[0,1,0],[0.25,1,0],[0.5,1,0],[0.75,1,0],[1,1,0],[0,0.25,0],[0,0.5,0],[0,0.75,0],[1,0.25,0],[1,0.5,0],[1,0.75,0]];outlineConnect=0;fontColor=#232F3E;fillColor=#8C4FFF;strokeColor=#ffffff;dashed=0;verticalLabelPosition=bottom;verticalAlign=top;align=center;html=1;fontSize=12;fontStyle=0;aspect=fixed;shape=mxgraph.aws4.resourceIcon;resIcon=mxgraph.aws4.direct_connect;" vertex="1" parent="1">
          <mxGeometry x="180" y="140" width="78" height="78" as="geometry" />
        </mxCell>
        <mxCell id="cgtv0CHKIQMcRAsqrqvQ-15" value="" style="edgeStyle=orthogonalEdgeStyle;rounded=0;orthogonalLoop=1;jettySize=auto;html=1;entryX=0.5;entryY=0;entryDx=0;entryDy=0;" edge="1" parent="1" source="cgtv0CHKIQMcRAsqrqvQ-1" target="cgtv0CHKIQMcRAsqrqvQ-14">
          <mxGeometry relative="1" as="geometry">
            <mxPoint x="540" y="100" as="sourcePoint" />
            <mxPoint x="650" y="250" as="targetPoint" />
          </mxGeometry>
        </mxCell>
        <mxCell id="cgtv0CHKIQMcRAsqrqvQ-14" value="" style="points=[];aspect=fixed;html=1;align=center;shadow=0;dashed=0;fillColor=#FF6A00;strokeColor=none;shape=mxgraph.alibaba_cloud.express_connect;" vertex="1" parent="1">
          <mxGeometry x="624.2" y="160" width="51.6" height="47.400000000000006" as="geometry" />
        </mxCell>
      </root>
    </mxGraphModel>
  </diagram>
</mxfile>
